# AST/ASF file generated using VICON BodyLanguage
# -----------------------------------------------
:version 1.10
:name VICON
:units
  mass 1.0
  length 0.45
  angle deg
:documentation
   .ast/.asf automatically generated from VICON data using
   VICON BodyBuilder and BodyLanguage model FoxedUp or BRILLIANT.MOD
:root
   order TX TY TZ RX RY RZ
   axis XYZ
   position 0 0 0  
   orientation 0 0 0 
:bonedata
  begin
     id 1 
     name lhipjoint
     direction 0.690799 -0.707083 0.151096 
     length 2.54797 
     axis 0 0 0  XYZ
  end
  begin
     id 2 
     name lfemur
     direction 0.34202 -0.939693 0  
     length 7.21646  
     axis 0 0 20  XYZ
    dof rx ry rz
    limits (-160.0 20.0)
           (-70.0 70.0)
           (-60.0 70.0)
  end
  begin
     id 3 
     name ltibia
     direction 0.34202 -0.939693 0   
     length 8.16759   
     axis 0 0 20   XYZ
    dof rx
    limits (-10.0 170.0)
  end
  begin
     id 4 
     name lfoot
     direction 0.0487203 -0.133858 0.989802   
     length 1.93375   
     axis -90 7.62852e-016 20   XYZ
    dof rx rz
    limits (-45.0 90.0)
           (-70.0 20.0)
  end
  begin
     id 5 
     name ltoes
     direction 1.53453e-011 -4.21783e-011 1   
     length 0.979747   
     axis -90 7.62852e-016 20   XYZ
    dof rx
    limits (-90.0 20.0)
  end
  begin
     id 6 
     name rhipjoint
     direction -0.694693 -0.703425 0.150315   
     length 2.56122  
     axis 0 0 0  XYZ 
  end
  begin
     id 7 
     name rfemur
     direction -0.34202 -0.939693 0   
     length 7.36786   
     axis 0 0 -20   XYZ
    dof rx ry rz
    limits (-160.0 20.0)
           (-70.0 70.0)
           (-70.0 60.0)
  end
  begin
     id 8 
     name rtibia
     direction -0.34202 -0.939693 0   
     length 8.07288   
     axis 0 0 -20   XYZ
    dof rx
    limits (-10.0 170.0)
 end
 begin
     id 9 
     name rfoot
     direction -0.0428397 -0.117701 0.992125   
     length 1.88295  
     axis -90 -7.62852e-016 -20   XYZ
    dof rx rz
    limits (-45.0 90.0)
           (-20.0 70.0)
  end
  begin
     id 10 
     name rtoes
     direction -1.53456e-011 -4.2187e-011 1   
     length 0.955578   
     axis -90 -7.62852e-016 -20   XYZ
    dof rx
    limits (-90.0 20.0)
  end
  begin
     id 11 
     name lowerback
     direction 0.0288145 0.999398 -0.0193241   
     length 1.92149   
     axis 0 0 0   XYZ
    dof rx ry rz
    limits (-20.0 45.0)
           (-30.0 30.0)
           (-30.0 30.0)
  end
  begin
     id 12 
     name upperback
     direction 0.0233784 0.998099 0.0570278   
     length 1.90435   
     axis 0 0 0   XYZ
    dof rx ry rz
    limits (-20.0 45.0)
           (-30.0 30.0)
           (-30.0 30.0)
  end
  begin
     id 13 
     name thorax
     direction 0.0096694 0.997833 0.0650817   
     length 1.9111   
     axis 0 0 0   XYZ
    dof rx ry rz
    limits (-20.0 45.0)
           (-30.0 30.0)
           (-30.0 30.0)
  end
  begin
     id 14 
     name lowerneck
     direction 0.00516803 0.999916 0.0118722   
     length 1.74664   
     axis 0 0 0   XYZ
    dof rx ry rz
    limits (-20.0 45.0)
           (-30.0 30.0)
           (-30.0 30.0)
  end
  begin
     id 15 
     name upperneck
     direction -0.0510851 0.996117 -0.071696   
     length 1.68498   
     axis 0 0 0   XYZ
    dof rx ry rz
    limits (-20.0 45.0)
           (-30.0 30.0)
           (-30.0 30.0)
  end
  begin
     id 16
     name head
     direction -0.019188 0.999436 -0.0275702  
     length 1.83483  
     axis 0 0 0   XYZ
    dof rx ry rz
    limits (-20.0 45.0)
           (-30.0 30.0)
           (-30.0 30.0)
  end
  begin
     id 17 
     name lclavicle
     direction 0.967006 0.248456 -0.0562957  
     length 3.39395  
     axis 0 0 0   XYZ
    dof ry rz
    limits (-20.0 10.0)
           (0.0 20.0)
  end
  begin
     id 18 
     name lhumerus
     direction 1 -4.48962e-011 -5.62711e-019   
     length 5.24318   
     axis 180 -30 -90   XYZ
    dof rx ry rz
    limits (-60.0 90.0)
           (-90.0 90.0)
           (-90.0 90.0)
  end
  begin
     id 19
     name lradius
     direction 1 -4.48966e-011 7.90625e-027   
     length 2.98999   
     axis 180 -30 -90   XYZ
    dof rx
    limits (-10.0 170.0)
  end
  begin
     id 20
     name lwrist
     direction 1 -4.48959e-011 1.61068e-026   
     length 1.49499   
     axis -9.31229e-015 90 90   XYZ
    dof ry
    limits (-180.0 0.0)
 end
  begin
     id 21 
     name lhand
     direction 1 -4.49017e-011 3.22136e-026   
     length 0.726745   
     axis -2.0555e-014 90 90   XYZ
    dof rx rz
    limits (-90.0 90.0)
           (-45.0 45.0)
  end
  begin
     id 22 
     name lfingers
     direction 1 -4.4898e-011 6.44272e-026   
     length 0.58592   
     axis -4.11101e-014 90 90   XYZ
    dof rx
    limits (0.0 90.0)
  end
  begin
     id 23
     name lthumb
     direction 0.707107 -6.34922e-011 0.707107   
     length 0.841268   
     axis -90 45 2.85299e-015   XYZ
    dof rx rz
    limits (-45.0 45.0)
           (-45.0 45.0)
  end
  begin
     id 24 
     name rclavicle
     direction -0.972232 0.230238 0.0419005   
     length 3.40416  
     axis 0 0 0   XYZ 
    dof ry rz
    limits (-10.0 20.0)
           (-20.0 0.0)
  end
  begin
     id 25 
     name rhumerus
     direction -1 -4.48976e-011 2.48487e-027  
     length 5.37045   
     axis 180 30 90   XYZ
    dof rx ry rz
    limits (-90.0 60.0)
           (-90.0 90.0)
           (-90.0 90.0)
  end
  begin
     id 26 
     name rradius
     direction -1 -4.48942e-011 7.87951e-027   
     length 2.92792   
     axis 180 30 90   XYZ
    dof rx
    limits (-10.0 170.0)
  end
  begin
     id 27 
     name rwrist
     direction -1 -4.48969e-011 1.61068e-026   
     length 1.46396   
     axis -9.31229e-015 -90 -90   XYZ
    dof ry
    limits (-180.0 0.0)
  end
  begin
     id 28
     name rhand
     direction -1 -4.49043e-011 3.22136e-026   
     length 0.784497   
     axis -2.0555e-014 -90 -90   XYZ
    dof rx rz
    limits (-90.0 90.0)
           (-45.0 45.0)
  end
  begin
     id 29
     name rfingers
     direction -1 -4.48823e-011 6.44272e-026   
     length 0.632482   
     axis -4.11101e-014 -90 -90   XYZ
    dof rx
    limits (0.0 90.0)
  end
  begin
     id 30
     name rthumb
     direction -0.707107 -6.34923e-011 0.707107   
     length 0.908121   
     axis -90 -45 -2.85299e-015   XYZ
    dof rx rz
    limits (-45.0 45.0)
           (-45.0 45.0)
  end
:hierarchy
  begin
    root lhipjoint rhipjoint lowerback
    lhipjoint lfemur
    lfemur ltibia
    ltibia lfoot
    lfoot ltoes
    rhipjoint rfemur
    rfemur rtibia
    rtibia rfoot
    rfoot rtoes
    lowerback upperback
    upperback thorax
    thorax lowerneck lclavicle rclavicle
    lowerneck upperneck
    upperneck head
    lclavicle lhumerus
    lhumerus lradius
    lradius lwrist
    lwrist lhand lthumb
    lhand lfingers
    rclavicle rhumerus
    rhumerus rradius
    rradius rwrist
    rwrist rhand rthumb
    rhand rfingers
  end

#!OML:ASF E:\Style6\Style6.ASF
:FULLY-SPECIFIED
:DEGREES
1272
root -0.914185 16.1986 1.86501 -24.2106 -22.5172 -9.28866
lowerback -8.29214 2.47391 -8.20908
upperback 2.27462 4.73839 -9.28367
thorax 7.27423 2.14055 -4.62756
lowerneck 10.2275 0.393937 3.43291
upperneck 24.9364 -1.39875 9.50062
head 6.01791 -0.0475573 2.44704
rclavicle 3.97569e-014 5.725e-014
rhumerus 31.8827 -36.5448 -26.4219
rradius 53.4796
rwrist 30.8476
rhand 23.3064 1.38181
rfingers 7.12502
rthumb 47.6019 -21.0146
lclavicle 3.97569e-014 5.725e-014
lhumerus 0.811024 46.4566 34.4303
lradius 54.7713
lwrist -0.09475
lhand -5.89777 26.7189
lfingers 7.12502
lthumb 19.9306 55.7169
rfemur 12.9732 -5.53507 28.2392
rtibia 48.031
rfoot -25.0014 8.56236
rtoes -0.605613
lfemur 19.5071 2.81283 -4.16594
ltibia 50.3018
lfoot -29.873 24.1177
ltoes -22.6357
1273
root -0.915698 16.1589 1.88101 -24.5616 -22.251 -9.34058
lowerback -8.39787 2.47599 -8.31002
upperback 2.39795 4.79217 -9.38276
thorax 7.47508 2.15925 -4.67152
lowerneck 10.1386 0.33571 3.46178
upperneck 25.9095 -1.63152 9.69319
head 6.36655 -0.117871 2.51757
rclavicle 1.11319e-014 -3.49861e-014
rhumerus 31.594 -36.7237 -26.6733
rradius 54.083
rwrist 31.1659
rhand 23.2283 1.40224
rfingers 7.12502
rthumb 47.5297 -21.027
lclavicle 1.11319e-014 -3.49861e-014
lhumerus 1.3597 46.3429 35.0875
lradius 54.8794
lwrist -0.093377
lhand -5.89865 26.7407
lfingers 7.12502
lthumb 19.9298 55.7387
rfemur 13.2114 -5.69337 28.2268
rtibia 48.5096
rfoot -25.4361 8.27305
rtoes -1.3873
lfemur 19.6512 2.71161 -3.98732
ltibia 50.7599
lfoot -30.079 24.0567
ltoes -23.0809
1274
root -0.914872 16.1228 1.90137 -25.0023 -21.9466 -9.21794
lowerback -8.48563 2.48614 -8.4943
upperback 2.5507 4.87027 -9.5206
thorax 7.69701 2.18569 -4.71011
lowerneck 9.87587 0.283495 3.45833
upperneck 26.9726 -1.87457 9.84853
head 6.77881 -0.188349 2.58356
rclavicle -5.08889e-014 5.40694e-014
rhumerus 31.2021 -36.8682 -26.7734
rradius 54.7289
rwrist 31.4105
rhand 23.1606 1.47837
rfingers 7.12502
rthumb 47.4673 -20.9792
lclavicle -5.08889e-014 5.40694e-014
lhumerus 1.85331 46.2779 35.8027
lradius 55.1071
lwrist -0.00299136
lhand -6.0917 26.8051
lfingers 7.12502
lthumb 19.7442 55.8224
rfemur 13.5091 -5.83051 27.9893
rtibia 48.9692
rfoot -25.7297 8.37839
rtoes -0.444106
lfemur 19.8545 2.63399 -4.04152
ltibia 51.1704
lfoot -30.0646 24.2261
ltoes -24.1419
1275
root -0.912285 16.0892 1.92325 -25.4426 -21.6278 -9.00618
lowerback -8.57038 2.51487 -8.75452
upperback 2.67165 4.9781 -9.67226
thorax 7.87944 2.22349 -4.71777
lowerneck 9.77618 0.241229 3.34132
upperneck 27.8713 -2.10551 10.1119
head 7.11412 -0.267062 2.70441
rclavicle -1.59028e-015 -1.59028e-014
rhumerus 30.7264 -37.0149 -26.7643
rradius 55.3407
rwrist 31.746
rhand 23.0685 1.67518
rfingers 7.12502
rthumb 47.3821 -20.8208
lclavicle -1.59028e-015 -1.59028e-014
lhumerus 2.34346 46.2651 36.5677
lradius 55.3121
lwrist -0.124709
lhand -6.08917 26.7627
lfingers 7.12502
lthumb 19.7466 55.7797
rfemur 13.7977 -5.97692 27.6119
rtibia 49.3887
rfoot -25.9831 8.51429
rtoes -0.16222
lfemur 20.0409 2.58212 -4.22194
ltibia 51.5461
lfoot -30.0058 24.4955
ltoes -25.0551
1276
root -0.910475 16.0556 1.94127 -25.7023 -21.4951 -9.15675
lowerback -8.6012 2.59408 -8.65402
upperback 2.73753 5.09222 -9.7221
thorax 7.98681 2.28329 -4.81138
lowerneck 9.88465 0.171835 3.29322
upperneck 28.4975 -2.3232 10.3414
head 7.32614 -0.349825 2.79883
rclavicle -4.45278e-014 6.04305e-014
rhumerus 30.1567 -37.1628 -26.6601
rradius 55.9256
rwrist 32.1383
rhand 22.9317 1.77517
rfingers 7.12502
rthumb 47.2558 -20.7775
lclavicle -4.45278e-014 6.04305e-014
lhumerus 2.92926 46.2621 37.382
lradius 55.3464
lwrist -0.384975
lhand -5.90082 26.5899
lfingers 7.12502
lthumb 19.9277 55.5881
rfemur 14.0089 -6.11466 27.6856
rtibia 49.7585
rfoot -26.2403 8.43767
rtoes -0.391069
lfemur 20.1803 2.55111 -3.94327
ltibia 51.9188
lfoot -29.8274 24.8458
ltoes -26.2305
1277
root -0.909375 16.0228 1.95747 -25.909 -21.5405 -9.5206
lowerback -8.56652 2.63708 -8.37369
upperback 2.77315 5.1134 -9.6198
thorax 8.0171 2.3057 -4.85133
lowerneck 10.0038 0.167394 3.22317
upperneck 29.0603 -2.40948 10.4201
head 7.5092 -0.382701 2.8489
rclavicle -3.18055e-014 -3.81667e-014
rhumerus 29.8353 -37.1333 -26.6537
rradius 56.5223
rwrist 32.5113
rhand 22.7936 1.60158
rfingers 7.12502
rthumb 47.128 -21.008
lclavicle -3.18055e-014 -3.81667e-014
lhumerus 3.13732 46.3261 37.9666
lradius 55.4311
lwrist -0.558325
lhand -5.70172 26.5844
lfingers 7.12502
lthumb 20.1191 55.5627
rfemur 14.2294 -6.20103 28.05
rtibia 50.0911
rfoot -26.4249 8.38005
rtoes -0.28067
lfemur 20.3854 2.53493 -3.36383
ltibia 52.2638
lfoot -29.9215 24.8115
ltoes -26.6888
1278
root -0.905888 15.9929 1.97933 -26.2235 -21.4948 -9.66396
lowerback -8.54495 2.6095 -8.28746
upperback 2.8326 5.06861 -9.54751
thorax 8.06735 2.28558 -4.82756
lowerneck 10.0486 0.237737 3.04697
upperneck 29.6238 -2.40163 10.5089
head 7.70064 -0.377865 2.92418
rclavicle -1.59028e-015 -5.08889e-014
rhumerus 29.8316 -37.1344 -26.926
rradius 57.0147
rwrist 32.9569
rhand 22.618 1.79089
rfingers 7.12502
rthumb 46.9657 -20.8904
lclavicle -1.59028e-015 -5.08889e-014
lhumerus 3.02799 46.4363 38.3178
lradius 55.6387
lwrist -0.546486
lhand -5.56778 26.9741
lfingers 7.12502
lthumb 20.2478 55.9387
rfemur 14.5411 -6.32503 28.0839
rtibia 50.4062
rfoot -26.5882 8.59126
rtoes 0.392083
lfemur 20.6762 2.4784 -3.11145
ltibia 52.5701
lfoot -30.2675 24.5745
ltoes -26.551
